Coordinates
version=1
nRows=40
nColumns=30
inDegrees=yes

Units are S.I. units (second, meters, Newtons, ...)
Angles are in degrees.

endheader
time	floatyaw	floatroll	floatpitch	floatx	floaty	floatz	pro_sup_l	deviation_l	flexion_l	cmc_flexion_l	cmc_abduction_l	mp_flexion_l	ip_flexion_l	2mcp_flexion_l	2mcp_abduction_l	2pm_flexion_l	2md_flexion_l	3mcp_flexion_l	3mcp_abduction_l	3pm_flexion_l	3md_flexion_l	4mcp_flexion_l	4mcp_abduction_l	4pm_flexion_l	4md_flexion_l	5mcp_flexion_l	5mcp_abduction_l	5pm_flexion_l	5md_flexion_l
-0.495000	-1.847142	-2.057261	94.906514	0.038172	-0.246354	0.061196	87.809739	12.456894	5.048316	9.556831	11.749265	-15.227327	-18.303110	34.808053	7.175892	22.756617	15.734600	24.470371	5.178962	25.730213	21.555142	8.892758	-3.247069	44.178489	32.924769	-0.932240	-8.795084	42.501742	36.443946
-0.485000	-1.847142	-2.057261	94.906514	0.043313	-0.244846	0.066214	88.114841	13.461296	5.377618	8.744450	12.009930	-15.287503	-18.088347	35.916676	7.330436	22.537721	15.626294	25.731991	5.260669	25.413855	21.704941	9.802446	-3.274031	43.934525	33.164745	-0.208848	-8.758631	42.118834	36.401934
-0.475000	-1.847142	-2.057261	94.906514	0.048677	-0.243429	0.071418	88.528538	14.438183	5.739502	7.958264	12.249197	-15.332210	-17.884713	36.966300	7.508957	22.374840	15.579947	27.001029	5.359055	25.094120	21.876610	10.774690	-3.302156	43.682017	33.424247	0.394307	-8.745513	41.865524	36.476550
-0.465000	-1.847142	-2.057261	94.906514	0.054252	-0.242070	0.076763	89.075606	15.382804	6.164450	7.202530	12.485283	-15.344864	-17.675074	37.934240	7.705323	22.268448	15.594692	28.277190	5.480676	24.773277	22.066185	11.807463	-3.326297	43.423376	33.710449	0.841419	-8.779704	41.773236	36.671852
-0.455000	-1.847142	-2.057261	94.906514	0.060022	-0.240765	0.082220	89.756555	16.286203	6.690817	6.476256	12.742033	-15.326820	-17.461945	38.810998	7.904648	22.219960	15.665658	29.555528	5.621830	24.465648	22.273399	12.898474	-3.345299	43.162623	34.014365	1.115052	-8.865900	41.852246	36.976273
-0.445000	-1.847142	-2.057261	94.906514	0.065961	-0.239546	0.087770	90.547600	17.135689	7.355489	5.771951	13.043311	-15.292446	-17.257986	39.600738	8.089851	22.233132	15.787606	30.829203	5.769397	24.192788	22.501009	14.049885	-3.362803	42.903725	34.314094	1.228440	-8.989936	42.082585	37.364154
-0.435000	-1.847142	-2.057261	94.906514	0.072036	-0.238481	0.093406	91.411187	17.917362	8.184543	5.079807	13.408123	-15.259861	-17.076036	40.313607	8.249256	22.316895	15.960228	32.088710	5.905829	23.981123	22.755825	15.265786	-3.386435	42.653863	34.587753	1.233827	-9.127053	42.417018	37.797405
-0.425000	-1.847142	-2.057261	94.906514	0.078207	-0.237646	0.099124	92.311475	18.619809	9.187684	4.393944	13.848742	-15.241730	-16.922470	40.955431	8.381167	22.485110	16.191327	33.319779	6.016127	23.858436	23.050440	16.546429	-3.425430	42.428628	34.827586	1.219936	-9.252526	42.794842	38.230826
-0.415000	-1.847142	-2.057261	94.906514	0.084432	-0.237104	0.104914	93.227268	19.237514	10.357371	3.716274	14.371220	-15.239536	-16.794443	41.520501	8.493176	22.751540	16.495461	34.503661	6.093430	23.846221	23.403375	17.884168	-3.487630	42.254803	35.046580	1.293763	-9.349337	43.161435	38.624109
-0.405000	-1.847142	-2.057261	94.906514	0.090667	-0.236888	0.110750	94.157225	19.772648	11.671068	3.055514	14.976511	-15.243003	-16.680098	41.991006	8.596944	23.121795	16.888190	35.621412	6.140422	23.949459	23.835791	19.263788	-3.577143	42.166084	35.273913	1.551435	-9.410638	43.484573	38.956811
-0.395000	-1.847142	-2.057261	94.906514	0.096862	-0.237004	0.116586	95.116942	20.234884	13.094910	2.422888	15.661264	-15.234427	-16.561338	42.343201	8.701859	23.586750	17.378934	36.659727	6.166214	24.150259	24.365651	20.667089	-3.693493	42.191410	35.542039	2.051584	-9.438039	43.759825	39.237544
-0.385000	-1.847142	-2.057261	94.906514	0.102962	-0.237442	0.122362	96.131093	20.639656	14.588436	1.828537	16.418649	-15.195755	-16.419173	42.556743	8.811487	24.122375	17.967176	37.614285	6.181030	24.411547	25.002185	22.079093	-3.832358	42.342488	35.872571	2.803551	-9.438402	44.004774	39.501836
-0.375000	-1.847142	-2.057261	94.906514	0.108919	-0.238191	0.128025	97.224559	21.005053	16.110318	1.281430	17.239685	-15.115368	-16.240630	42.621982	8.924627	24.697741	18.645026	38.488904	6.191919	24.690532	25.742712	23.491961	-3.987440	42.609374	36.268019	3.773241	-9.421580	44.248156	39.800510
-0.365000	-1.847142	-2.057261	94.906514	0.114695	-0.239245	0.133537	98.414988	21.347128	17.624244	0.792041	18.114470	-14.992101	-16.024712	42.542036	9.039304	25.287540	19.404302	39.291637	6.201403	24.955211	26.572170	24.903462	-4.152655	42.967325	36.712277	4.900370	-9.399880	44.519656	40.184214
-0.355000	-1.847142	-2.057261	94.906514	0.120264	-0.240600	0.138882	99.707676	21.674332	19.103249	0.374429	19.032138	-14.835389	-15.784394	42.330569	9.156098	25.882329	20.242402	40.029898	6.208852	25.196224	27.465526	26.310535	-4.323625	43.390137	37.177935	6.118380	-9.388136	44.842215	40.688859
-0.345000	-1.847142	-2.057261	94.906514	0.125604	-0.242247	0.144051	101.093239	21.983631	20.530796	0.044534	19.979544	-14.661533	-15.542875	42.008734	9.278202	26.491482	21.162293	40.706905	6.213013	25.429832	28.393552	27.703147	-4.497807	43.861490	37.636346	7.371383	-9.402556	45.226969	41.325158
-0.335000	-1.847142	-2.057261	94.906514	0.130686	-0.244166	0.149034	102.548841	22.261381	21.898288	-0.185450	20.940393	-14.487222	-15.324999	41.603766	9.408535	27.138453	22.166925	41.321713	6.213987	25.691744	29.331080	29.064642	-4.673350	44.378634	38.066784	8.626126	-9.457621	45.672214	42.074932
-0.325000	-1.847142	-2.057261	94.906514	0.135483	-0.246332	0.153808	104.043072	22.489642	23.200770	-0.313309	21.896556	-14.322909	-15.147688	41.148596	9.546354	27.851329	23.252576	41.873530	6.213827	26.024217	30.264083	30.379782	-4.847700	44.948236	38.462034	9.876997	-9.562060	46.168091	42.895814
-0.315000	-1.847142	-2.057261	94.906514	0.139974	-0.248714	0.158339	105.542711	22.655125	24.433532	-0.349126	22.831333	-14.169542	-15.014447	40.680055	9.685724	28.652056	24.405635	42.367804	6.215886	26.460838	31.191381	31.644309	-5.017114	45.578459	38.828735	11.140109	-9.715639	46.705865	43.733767
-0.305000	-1.847142	-2.057261	94.906514	0.144156	-0.251279	0.162592	107.018107	22.756245	25.591067	-0.311483	23.732598	-14.020750	-14.916892	40.234529	9.816553	29.546942	25.604044	42.819554	6.223645	27.014429	32.119820	32.867435	-5.177378	46.272338	39.182760	12.435021	-9.908185	47.286501	44.539736
-0.295000	-1.847142	-2.057261	94.906514	0.148035	-0.253995	0.166534	108.445029	22.805006	26.667808	-0.219692	24.594062	-13.868925	-14.841803	39.842752	9.927472	30.520852	26.821434	43.250957	6.239647	27.673040	33.055999	34.064475	-5.324914	47.025522	39.542238	13.761662	-10.121699	47.921923	45.283727
-0.285000	-1.847142	-2.057261	94.906514	0.151621	-0.256819	0.170143	109.803591	22.823177	27.659353	-0.087007	25.414585	-13.710734	-14.778640	39.526403	10.009366	31.537606	28.031765	43.684084	6.264847	28.406304	33.999817	35.245884	-5.457254	47.828036	39.921645	15.087693	-10.335449	48.626848	45.959773
-0.275000	-1.847142	-2.057261	94.906514	0.154922	-0.259704	0.173409	111.076804	22.834777	28.563324	0.081102	26.196652	-13.548390	-14.722907	39.297529	10.058395	32.548002	29.214484	44.132745	6.298441	29.179860	34.944020	36.412139	-5.572734	48.667549	40.328991	16.357326	-10.532412	49.407089	46.580465
-0.265000	-1.847142	-2.057261	94.906514	0.157940	-0.262606	0.176336	112.250440	22.857969	29.379451	0.283368	26.944916	-13.386978	-14.674673	39.159638	10.077443	33.504053	30.360895	44.597793	6.338138	29.971108	35.879838	37.557764	-5.670179	49.532255	40.766103	17.517396	-10.704208	50.254186	47.166300
-0.255000	-1.847142	-2.057261	94.906514	0.160681	-0.265489	0.178940	113.313866	22.899150	30.108527	0.516788	27.664683	-13.231259	-14.635290	39.108976	10.075218	34.374657	31.479371	45.068359	6.380789	30.778136	36.804215	38.678805	-5.749252	50.413211	41.230710	18.543152	-10.852254	51.150625	47.736871
-0.245000	-1.847142	-2.057261	94.906514	0.163149	-0.268334	0.181251	114.260654	22.951152	30.750463	0.771895	28.359750	-13.084831	-14.605643	39.135745	10.063001	35.156321	32.593882	45.528464	6.423245	31.617070	37.722382	39.775884	-5.811345	51.306171	41.718567	19.446838	-10.985061	52.080252	48.306739
-0.235000	-1.847142	-2.057261	94.906514	0.165349	-0.271129	0.183301	115.088896	22.996468	31.302713	1.031318	29.029803	-12.951459	-14.586560	39.225837	10.050196	35.873995	33.732651	45.965782	6.463411	32.509957	38.642731	40.850752	-5.860163	52.211918	42.224181	20.265363	-11.113579	53.035424	48.883590
-0.225000	-1.847142	-2.057261	94.906514	0.167284	-0.273854	0.185122	115.802005	23.014589	31.760893	1.272054	29.668755	-12.836185	-14.579632	39.362915	10.040779	36.571299	34.911743	46.377922	6.501320	33.470668	39.567192	41.900964	-5.901306	53.133877	42.740072	21.037124	-11.247069	54.017638	49.465595
-0.215000	-1.847142	-2.057261	94.906514	0.168959	-0.276477	0.186745	116.409762	22.990406	32.122205	1.470783	30.265407	-12.744581	-14.586887	39.530050	10.032692	37.293734	36.124179	46.772813	6.539791	34.496249	40.484790	42.918055	-5.940881	54.073431	43.256266	21.782654	-11.391027	55.033804	50.039083
-0.205000	-1.847142	-2.057261	94.906514	0.170389	-0.278952	0.188202	116.927933	22.919907	32.389739	1.610509	30.805774	-12.680853	-14.609500	39.711289	10.020740	38.070577	37.341807	47.163417	6.584049	35.566027	41.374151	43.890215	-5.983823	55.025380	43.762015	22.498478	-11.547077	56.090937	50.580817
-0.195000	-1.847142	-2.057261	94.906514	0.171604	-0.281222	0.189523	117.375166	22.811021	32.574515	1.685716	31.274622	-12.646922	-14.646890	39.895000	10.001481	38.901384	38.527322	47.560697	6.639941	36.645920	42.213679	44.806403	-6.032710	55.976340	44.249673	23.164520	-11.713705	57.190609	51.066429
-0.185000	-1.847142	-2.057261	94.906514	0.172639	-0.283237	0.190734	117.768230	22.680076	32.693694	1.703168	31.654754	-12.643709	-14.697138	40.079430	9.977486	39.752462	39.647561	47.969334	6.711191	37.695008	42.992237	45.658929	-6.087497	56.907229	44.718160	23.758662	-11.886882	58.324446	51.480632
-0.175000	-1.847142	-2.057261	94.906514	0.173533	-0.284962	0.191848	118.118425	22.546160	32.766234	1.677292	31.925656	-12.673647	-14.758523	40.277476	9.958699	40.566485	40.680927	48.387994	6.796977	38.673785	43.713374	46.444282	-6.146260	57.798691	45.173222	24.270186	-12.060712	59.472870	51.822630
-0.165000	-1.847142	-2.057261	94.906514	0.174318	-0.286387	0.192865	118.431150	22.426005	32.808621	1.621966	32.064618	-12.742019	-14.831136	40.515887	9.960067	41.283163	41.617781	48.812720	6.891365	39.554003	44.391551	47.163677	-6.206463	58.636920	45.624221	24.706181	-12.228616	60.608742	52.103879
-0.155000	-1.847142	-2.057261	94.906514	0.175016	-0.287529	0.193776	118.707931	22.331059	32.832417	1.542652	32.051443	-12.855596	-14.917662	40.826714	9.996043	41.862321	42.456921	49.240608	6.985188	40.327274	45.044773	47.823921	-6.265963	59.417455	46.079954	25.089208	-12.385049	61.705118	52.340964
-0.145000	-1.847142	-2.057261	94.906514	0.175642	-0.288431	0.194568	118.948353	22.266941	32.843831	1.433145	31.874999	-13.019363	-15.023411	41.233916	10.073932	42.297724	43.201623	49.671666	7.069420	41.007538	45.689698	48.437394	-6.323118	60.145825	46.546547	25.448556	-12.526922	62.743917	52.548949
-0.135000	-1.847142	-2.057261	94.906514	0.176205	-0.289149	0.195228	119.150109	22.234189	32.844622	1.279483	31.538748	-13.233710	-15.156524	41.741881	10.188941	42.614022	43.857140	50.108346	7.138097	41.624379	46.341744	49.019692	-6.376179	60.835397	47.028501	25.809730	-12.653881	63.721258	52.739113
-0.125000	-1.847142	-2.057261	94.906514	0.176703	-0.289736	0.195748	119.307950	22.229055	32.833702	1.070214	31.063298	-13.494071	-15.329346	42.332029	10.323591	42.848798	44.430628	50.553478	7.189281	42.209464	47.018290	49.584814	-6.422840	61.503573	47.531807	26.186706	-12.767267	64.646465	52.921372
-0.115000	-1.847142	-2.057261	94.906514	0.177133	-0.290233	0.196119	119.413864	22.243830	32.809059	0.808793	30.485237	-13.793310	-15.561433	42.968724	10.452293	43.031114	44.934103	51.007412	7.224059	42.783133	47.741553	50.139445	-6.460616	62.167657	48.067053	26.579256	-12.868238	65.534908	53.108583
-0.105000	-1.847142	-2.057261	94.906514	0.177490	-0.290661	0.196343	119.459905	22.267213	32.769619	0.522255	29.852627	-14.125529	-15.883505	43.610092	10.549282	43.170471	45.388568	51.464839	7.244719	43.348967	48.538110	50.678491	-6.487857	62.841676	48.650175	26.974626	-12.955991	66.398495	53.318714
